<svg width="581" height="217" viewBox="0 0 581 217" fill="none" xmlns="http://www.w3.org/2000/svg">
<path d="M423.001 99.0138C422.982 96.6193 423.456 94.2467 424.395 92.0437C425.315 89.903 426.632 87.9555 428.276 86.3036C429.923 84.6542 431.872 83.3365 434.016 82.4221C436.215 81.4676 438.589 80.9835 440.986 81.0008C443.384 80.9778 445.759 81.4622 447.956 82.4221C450.108 83.3229 452.059 84.6422 453.696 86.3036C455.349 87.9481 456.667 89.8975 457.578 92.0437C458.538 94.2408 459.022 96.6162 458.999 99.0138C459.017 101.411 458.532 103.785 457.578 105.984C455.73 110.311 452.283 113.758 447.956 115.605C445.753 116.544 443.381 117.018 440.986 116.999C438.592 117.013 436.221 116.539 434.016 115.605C431.882 114.672 429.937 113.356 428.276 111.724C426.638 110.067 425.322 108.121 424.395 105.984C423.461 103.779 422.987 101.408 423.001 99.0138Z" fill="#FFB74C"/>
<path d="M454 144.025C454 136.279 448.18 130 441 130C433.82 130 428 136.279 428 144.025V202.975C428 210.721 433.82 217 441 217C448.18 217 454 210.721 454 202.975V144.025Z" fill="#2D2D2D"/>
<path d="M554.932 111.789H518.757C517.005 111.789 515.324 112.511 514.086 113.796C512.847 115.081 512.151 116.824 512.151 118.641V129.603C512.151 131.42 512.847 133.163 514.086 134.448C515.324 135.733 517.005 136.455 518.757 136.455H555.751C556.625 136.451 557.49 136.626 558.298 136.97C559.105 137.314 559.84 137.82 560.458 138.46C561.077 139.099 561.568 139.858 561.903 140.695C562.238 141.531 562.41 142.428 562.41 143.333V157.036C562.414 157.946 562.244 158.847 561.911 159.688C561.578 160.529 561.088 161.293 560.469 161.937C559.851 162.582 559.115 163.093 558.306 163.442C557.496 163.79 556.628 163.97 555.751 163.97H518.757C517.89 163.966 517.032 164.14 516.231 164.481C515.429 164.823 514.701 165.325 514.087 165.959C513.473 166.593 512.986 167.346 512.654 168.176C512.322 169.006 512.151 169.895 512.151 170.794V182.414C512.164 184.224 512.866 185.956 514.102 187.233C515.339 188.51 517.011 189.231 518.757 189.238H554.906C557.583 189.238 560.15 190.341 562.043 192.304C563.937 194.268 565 196.93 565 199.707V206.531C565 212.314 560.481 217 546.344 217H489.531C487.823 216.504 486.27 215.552 485.028 214.239C483.785 212.926 482.896 211.298 482.449 209.518C482.163 208.437 482.012 207.323 482 206.202V94.9623C481.999 92.0971 483.08 89.3456 485.011 87.2967C486.942 85.2478 489.57 84.0645 492.332 84H554.826C557.504 84 560.071 85.103 561.964 87.0663C563.857 89.0296 564.921 91.6924 564.921 94.469V101.293C564.928 104.055 563.882 106.709 562.011 108.675C560.14 110.641 557.596 111.76 554.932 111.789Z" fill="#2D2D2D"/>
<path d="M46.1452 168.249C46.0065 168.987 45.7202 169.687 45.3047 170.305C44.8892 170.922 44.3536 171.444 43.732 171.836C43.1104 172.228 42.4165 172.482 41.6945 172.582C40.9725 172.682 40.2382 172.625 39.5385 172.416C37.8488 171.828 36.0781 171.527 34.2951 171.523C32.5031 171.528 30.7267 171.867 29.0516 172.524C27.4438 173.125 25.9654 174.044 24.6995 175.23C23.4589 176.437 22.4689 177.892 21.7894 179.505C21.0126 181.31 20.6278 183.268 20.6621 185.242C20.6408 187.102 20.9981 188.946 21.7108 190.654C22.3874 192.264 23.3576 193.725 24.5685 194.956C25.824 196.157 27.3054 197.078 28.9205 197.662C30.6358 198.339 32.4587 198.679 34.2951 198.664C35.748 198.671 37.195 198.471 38.5947 198.068C39.4324 197.828 40.3094 197.769 41.1702 197.896C42.031 198.023 42.857 198.333 43.596 198.806C44.335 199.279 44.9711 199.904 45.464 200.644C45.9569 201.383 46.296 202.22 46.4598 203.101L46.8531 205.131C47.1645 206.645 46.9777 208.222 46.3224 209.614C45.6671 211.006 44.5807 212.133 43.2351 212.816C39.3156 214.469 35.0881 215.199 30.8606 214.953C26.8665 214.969 22.9005 214.263 19.1415 212.87C15.5186 211.538 12.1734 209.509 9.28382 206.89C6.4988 204.253 4.23711 201.082 2.62464 197.554C0.874507 193.76 -0.0217493 189.607 0.00292178 185.404C-0.0539242 181.32 0.719292 177.269 2.27269 173.513C3.82609 169.756 6.12518 166.378 9.02165 163.595C11.9029 160.856 15.2796 158.732 18.958 157.344C22.9505 155.774 27.1913 154.985 31.4636 155.017C34.7279 154.901 37.986 155.387 41.0853 156.451C43.0683 157.236 44.7109 158.732 45.7124 160.665C46.7138 162.598 47.0071 164.839 46.5385 166.977L46.1452 168.249Z" fill="#2D2D2D"/>
<path d="M132.586 158.968H138.878C139.738 158.968 140.59 159.137 141.384 159.465C142.178 159.794 142.899 160.274 143.506 160.88C144.113 161.487 144.594 162.206 144.92 162.997C145.247 163.788 145.414 164.636 145.41 165.491C150.169 160.778 156.61 158.128 163.326 158.12C166.663 157.983 169.982 158.65 173.004 160.062C176.026 161.475 178.66 163.592 180.683 166.233C180.833 166.447 181.032 166.621 181.264 166.741C181.497 166.862 181.754 166.924 182.016 166.924C182.278 166.924 182.536 166.862 182.768 166.741C183 166.621 183.199 166.447 183.349 166.233C185.362 163.574 187.992 161.438 191.014 160.006C194.036 158.575 197.361 157.892 200.706 158.014C203.173 158.004 205.628 158.371 207.984 159.101C210.186 159.777 212.202 160.947 213.876 162.521C215.613 164.221 216.943 166.287 217.769 168.567C218.715 171.456 219.121 174.494 218.969 177.529V206.324C218.979 207.065 218.842 207.801 218.564 208.489C218.286 209.177 217.873 209.803 217.35 210.331C216.826 210.859 216.202 211.278 215.515 211.564C214.827 211.85 214.089 211.998 213.343 211.998H205.345C203.846 211.998 202.408 211.405 201.348 210.351C200.288 209.297 199.692 207.867 199.692 206.377V185.801C199.741 183.586 199.544 181.372 199.106 179.199C198.844 177.747 198.261 176.37 197.4 175.169C196.732 174.261 195.802 173.577 194.733 173.207C193.695 172.853 192.605 172.674 191.507 172.677C185.304 172.677 182.203 177.096 182.203 185.934V206.456C182.182 207.915 181.592 209.309 180.557 210.343C179.522 211.377 178.124 211.97 176.657 211.998H168.392C166.898 211.991 165.467 211.395 164.413 210.342C163.358 209.289 162.767 207.863 162.767 206.377V185.801C162.801 183.571 162.622 181.343 162.233 179.146C161.983 177.638 161.45 176.189 160.66 174.877C160.029 173.899 159.093 173.153 157.994 172.756C156.79 172.364 155.528 172.176 154.262 172.199C153.096 172.186 151.935 172.356 150.822 172.703C149.707 173.093 148.726 173.793 147.996 174.718C147.067 175.948 146.404 177.357 146.05 178.854C145.539 181.107 145.306 183.413 145.357 185.722V206.244C145.378 206.988 145.25 207.728 144.98 208.422C144.71 209.115 144.304 209.749 143.785 210.284C143.266 210.82 142.645 211.248 141.958 211.542C141.271 211.836 140.532 211.991 139.785 211.998H131.786C131.027 212.019 130.272 211.888 129.565 211.611C128.859 211.335 128.216 210.919 127.675 210.389C127.135 209.859 126.708 209.225 126.42 208.527C126.132 207.828 125.989 207.079 126.001 206.324V165.465C126.001 164.607 126.171 163.758 126.503 162.966C126.834 162.175 127.32 161.456 127.933 160.852C128.545 160.248 129.271 159.771 130.07 159.448C130.869 159.124 131.724 158.961 132.586 158.968Z" fill="#2D2D2D"/>
<path d="M239.386 158.942H245.614C246.465 158.942 247.308 159.111 248.094 159.44C248.88 159.768 249.594 160.249 250.195 160.855C250.796 161.462 251.271 162.181 251.595 162.973C251.918 163.765 252.083 164.613 252.079 165.468C256.762 160.795 263.082 158.156 269.681 158.12C272.983 157.983 276.269 158.65 279.26 160.063C282.251 161.476 284.858 163.595 286.86 166.238C287.009 166.451 287.206 166.625 287.436 166.746C287.665 166.866 287.921 166.929 288.18 166.929C288.439 166.929 288.694 166.866 288.924 166.746C289.153 166.625 289.351 166.451 289.499 166.238C291.492 163.577 294.094 161.439 297.085 160.007C300.076 158.576 303.368 157.892 306.678 158.014C309.121 158.004 311.551 158.371 313.883 159.102C316.062 159.778 318.057 160.949 319.715 162.524C321.433 164.224 322.75 166.291 323.567 168.572C324.584 171.448 325.067 174.487 324.992 177.539V206.322C325.003 207.073 324.864 207.818 324.582 208.513C324.3 209.209 323.882 209.84 323.353 210.37C322.824 210.899 322.194 211.317 321.501 211.597C320.808 211.876 320.066 212.013 319.319 211.999H311.402C309.918 211.999 308.495 211.406 307.446 210.352C306.397 209.297 305.808 207.867 305.808 206.375V185.789C305.855 183.572 305.661 181.357 305.227 179.183C304.968 177.73 304.391 176.353 303.538 175.151C302.877 174.243 301.957 173.558 300.899 173.188C299.872 172.834 298.792 172.655 297.706 172.658C291.566 172.658 288.496 177.079 288.496 185.922V206.455C288.475 207.937 287.873 209.351 286.821 210.389C285.768 211.428 284.35 212.006 282.875 211.999H274.827C273.348 211.992 271.931 211.396 270.888 210.342C269.844 209.288 269.259 207.862 269.259 206.375V185.789C269.292 183.558 269.116 181.328 268.731 179.13C268.47 177.654 267.952 176.235 267.2 174.939C266.576 173.96 265.649 173.214 264.561 172.817C263.37 172.425 262.121 172.236 260.867 172.26C259.713 172.246 258.564 172.416 257.463 172.764C256.355 173.148 255.383 173.848 254.666 174.78C253.746 176.011 253.09 177.42 252.739 178.918C252.233 181.172 252.003 183.479 252.053 185.789V206.322C252.063 207.064 251.927 207.8 251.652 208.488C251.377 209.177 250.968 209.803 250.45 210.331C249.932 210.86 249.315 211.279 248.634 211.565C247.953 211.852 247.223 211.999 246.485 211.999H238.568C237.835 211.999 237.109 211.853 236.431 211.57C235.754 211.287 235.139 210.873 234.622 210.35C234.104 209.828 233.695 209.207 233.416 208.525C233.138 207.843 232.997 207.112 233 206.375V165.442C233 163.732 233.67 162.091 234.866 160.874C236.061 159.657 237.685 158.963 239.386 158.942Z" fill="#2D2D2D"/>
<path d="M356.35 164.503V188.883C356.336 190.254 356.584 191.614 357.078 192.884C357.573 194.153 358.305 195.308 359.232 196.28C360.158 197.251 361.261 198.021 362.475 198.544C363.69 199.067 364.992 199.332 366.306 199.325C372.608 199.214 375.76 195.817 375.76 189.131V164.503C375.767 162.776 376.429 161.122 377.602 159.904C378.775 158.685 380.363 158.001 382.018 158.001H388.725C390.381 158.008 391.966 158.699 393.134 159.923C394.302 161.147 394.958 162.803 394.958 164.53V192.74C395.165 195.94 394.61 199.144 393.343 202.067C392.076 204.989 390.136 207.539 387.696 209.49C382.854 213.163 375.628 215 366.015 215C356.403 215 349.176 213.163 344.335 209.49C341.879 207.552 339.926 205.005 338.653 202.08C337.38 199.155 336.828 195.945 337.047 192.74V164.503C337.054 162.776 337.716 161.122 338.889 159.904C340.062 158.685 341.65 158.001 343.305 158.001H350.013C350.84 157.986 351.662 158.144 352.43 158.464C353.198 158.784 353.898 159.261 354.488 159.866C355.078 160.471 355.546 161.193 355.866 161.989C356.186 162.785 356.35 163.639 356.35 164.503Z" fill="#2D2D2D"/>
<path d="M85 156C79.2644 156 73.6575 157.73 68.8885 160.972C64.1195 164.213 60.4024 168.82 58.2075 174.211C56.0126 179.601 55.4383 185.533 56.5572 191.255C57.6762 196.978 60.4382 202.234 64.4939 206.36C68.5496 210.485 73.7169 213.295 79.3424 214.433C84.9678 215.571 90.7988 214.987 96.0978 212.754C101.397 210.522 105.926 206.741 109.113 201.889C112.299 197.038 114 191.335 114 185.5C114 181.626 113.25 177.79 111.793 174.211C110.335 170.632 108.199 167.38 105.506 164.64C102.813 161.901 99.6163 159.728 96.0978 158.246C92.5794 156.763 88.8083 156 85 156ZM85 198.909C82.3929 198.909 79.8443 198.123 77.6766 196.649C75.5088 195.176 73.8193 193.082 72.8216 190.631C71.8239 188.181 71.5629 185.485 72.0715 182.884C72.5801 180.283 73.8355 177.894 75.6791 176.018C77.5226 174.143 79.8713 172.866 82.4284 172.349C84.9854 171.831 87.6358 172.097 90.0445 173.112C92.4531 174.127 94.5119 175.845 95.9603 178.05C97.4087 180.255 98.1818 182.848 98.1818 185.5C98.1818 189.056 96.793 192.467 94.321 194.982C91.8489 197.496 88.496 198.909 85 198.909Z" fill="#2D2D2D"/>
<path d="M487.136 1.14741L403.442 48.6232C402.415 49.3349 401.651 50.3723 401.27 51.5723C400.889 52.7722 400.912 54.0665 401.336 55.2515C401.76 56.4365 402.561 57.445 403.612 58.1183C404.664 58.7916 405.907 59.0915 407.145 58.9708H574.824C576.065 59.0988 577.312 58.8041 578.369 58.1332C579.426 57.4624 580.232 56.4538 580.66 55.2668C581.087 54.0798 581.113 52.7821 580.731 51.5789C580.35 50.3757 579.584 49.3357 578.554 48.6232L494.569 1.14741C493.47 0.399439 492.176 0 490.852 0C489.528 0 488.235 0.399439 487.136 1.14741Z" fill="#74AD5D"/>
<path d="M87.4243 80.0023C87.4313 79.07 87.7928 78.1784 88.4299 77.5217C89.067 76.8651 89.9281 76.4966 90.8256 76.4966H113.04C113.776 76.493 114.504 76.6403 115.184 76.93C115.864 77.2196 116.483 77.6461 117.004 78.1847C117.525 78.7233 117.938 79.3636 118.22 80.0687C118.502 80.7738 118.647 81.5299 118.647 82.2934V98.8557C118.633 100.388 118.036 101.853 116.985 102.929C115.934 104.005 114.516 104.605 113.04 104.597H90.8256C89.9281 104.597 89.067 104.229 88.4299 103.572C87.7928 102.915 87.4313 102.024 87.4243 101.092C87.4313 100.159 87.7928 99.2676 88.4299 98.611C89.067 97.9543 89.9281 97.5859 90.8256 97.5859H110.383V83.508H90.8256C89.9281 83.508 89.067 83.1396 88.4299 82.4829C87.7928 81.8262 87.4313 80.9346 87.4243 80.0023Z" fill="#2D2D2D"/>
<path d="M144.194 71.7612C144.669 71.0708 145.392 70.573 146.225 70.3626C147.058 70.1522 147.942 70.2439 148.708 70.6204L154.207 73.2418C154.642 73.4608 155.025 73.764 155.332 74.1324C155.639 74.5007 155.864 74.9263 155.992 75.3823C156.12 75.8383 156.148 76.3149 156.076 76.782C156.003 77.2491 155.83 77.6966 155.569 78.0964C155.089 78.7887 154.363 79.2888 153.527 79.5033C152.692 79.7177 151.804 79.6318 151.029 79.2615L145.556 76.6158C145.115 76.4024 144.726 76.1021 144.415 75.7343C144.103 75.3665 143.875 74.9396 143.747 74.4815C143.618 74.0233 143.592 73.5442 143.669 73.0755C143.746 72.6067 143.924 72.1589 144.194 71.7612Z" fill="#2D2D2D"/>
<path d="M153.775 90.5282L154.121 89.9421C154.34 89.5593 154.479 89.1344 154.531 88.6938C154.583 88.2532 154.546 87.8063 154.423 87.3809C154.3 86.9555 154.093 86.5607 153.816 86.2211C153.538 85.8815 153.196 85.6043 152.809 85.4067L148.675 83.139C147.904 82.7309 147.013 82.6327 146.176 82.8635C145.339 83.0943 144.615 83.6375 144.145 84.3875C143.893 84.8098 143.728 85.2809 143.661 85.7715C143.593 86.2621 143.624 86.7618 143.752 87.2396C143.879 87.7173 144.101 88.163 144.403 88.549C144.705 88.935 145.08 89.2531 145.507 89.4835L149.591 91.7257C150.304 92.1182 151.137 92.2128 151.916 91.9898C152.695 91.7668 153.361 91.2433 153.775 90.5282Z" fill="#2D2D2D"/>
<path d="M144.653 95.6005L155.638 100.735C156.105 100.952 156.517 101.259 156.847 101.636C157.177 102.013 157.417 102.451 157.551 102.922C157.686 103.392 157.712 103.884 157.627 104.365C157.543 104.846 157.35 105.304 157.061 105.709L156.691 106.188C156.196 106.885 155.445 107.388 154.58 107.604C153.715 107.819 152.796 107.732 151.995 107.359L141.095 102.278C140.604 102.038 140.172 101.705 139.825 101.302C139.479 100.898 139.225 100.432 139.081 99.9319C138.937 99.4321 138.905 98.9098 138.987 98.3979C139.069 97.886 139.263 97.3955 139.558 96.9573C140.082 96.1869 140.89 95.6231 141.829 95.373C142.768 95.1229 143.773 95.2039 144.653 95.6005Z" fill="#2D2D2D"/>
<path d="M179.067 88.9338C179.067 88.1284 179.396 87.3553 179.982 86.781C180.569 86.2067 181.367 85.8772 182.203 85.8635H194.912C195.33 85.8635 195.743 85.9431 196.129 86.0977C196.514 86.2523 196.864 86.4789 197.158 86.7643C197.452 87.0498 197.685 87.3885 197.842 87.7608C198 88.1332 198.079 88.5318 198.075 88.9338V99.3415C198.075 99.5416 198.158 99.7335 198.305 99.875C198.452 100.017 198.652 100.096 198.859 100.096H201.266C201.684 100.086 202.099 100.155 202.489 100.3C202.879 100.445 203.235 100.663 203.536 100.941C203.838 101.22 204.08 101.553 204.247 101.921C204.414 102.289 204.504 102.686 204.511 103.088C204.511 103.491 204.428 103.891 204.268 104.263C204.107 104.636 203.872 104.974 203.576 105.259C203.28 105.544 202.928 105.77 202.541 105.925C202.154 106.079 201.739 106.158 201.32 106.158H178.012C177.595 106.159 177.181 106.079 176.796 105.924C176.41 105.77 176.06 105.543 175.766 105.258C175.472 104.972 175.239 104.634 175.082 104.261C174.924 103.889 174.845 103.49 174.849 103.088C174.849 102.281 175.182 101.507 175.775 100.936C176.369 100.365 177.173 100.044 178.012 100.044H191.775V91.978H182.203C181.369 91.9712 180.571 91.6474 179.984 91.0773C179.397 90.5071 179.067 89.7367 179.067 88.9338Z" fill="#2D2D2D"/>
<path d="M271.851 79.619H299.447C300.36 79.619 301.234 79.9869 301.879 80.6418C302.524 81.2967 302.887 82.1849 302.887 83.111C302.887 84.0371 302.524 84.9253 301.879 85.5802C301.234 86.235 300.36 86.6029 299.447 86.6029H289.102V100.598H304.078C304.532 100.595 304.983 100.682 305.403 100.856C305.823 101.03 306.206 101.287 306.528 101.611C306.85 101.936 307.106 102.322 307.281 102.747C307.455 103.173 307.545 103.629 307.545 104.09C307.559 104.562 307.48 105.031 307.313 105.471C307.145 105.911 306.892 106.312 306.569 106.65C306.245 106.989 305.858 107.258 305.43 107.442C305.003 107.625 304.543 107.72 304.078 107.72H267.274C266.82 107.72 266.37 107.628 265.951 107.451C265.532 107.274 265.152 107.014 264.832 106.687C264.512 106.36 264.26 105.972 264.088 105.545C263.917 105.118 263.831 104.661 263.834 104.2C263.834 103.742 263.923 103.288 264.096 102.864C264.269 102.44 264.522 102.055 264.842 101.731C265.161 101.407 265.54 101.15 265.958 100.974C266.375 100.799 266.822 100.708 267.274 100.708H282.196V86.7129H271.905C271.45 86.7129 270.999 86.6219 270.578 86.445C270.158 86.2681 269.776 86.0089 269.454 85.6821C269.132 85.3553 268.876 84.9673 268.702 84.5403C268.528 84.1133 268.438 83.6556 268.438 83.1935C268.42 82.7284 268.495 82.2643 268.659 81.8295C268.822 81.3946 269.071 80.9981 269.39 80.6638C269.709 80.3296 270.092 80.0646 270.515 79.885C270.938 79.7054 271.392 79.6149 271.851 79.619Z" fill="#2D2D2D"/>
<path d="M223.451 96.3544C227.126 94.4198 230.661 92.2471 234.032 89.8511L233.726 105.357C233.707 105.87 233.797 106.382 233.989 106.861C234.181 107.34 234.472 107.776 234.845 108.143C235.217 108.51 235.663 108.8 236.155 108.996C236.648 109.191 237.176 109.288 237.708 109.28C238.231 109.284 238.749 109.187 239.232 108.995C239.715 108.802 240.154 108.519 240.522 108.161C240.891 107.803 241.181 107.378 241.377 106.91C241.573 106.443 241.67 105.942 241.662 105.437L241.495 84.6109L247.064 79.5857C247.459 79.2228 247.767 78.7809 247.966 78.2909C248.165 77.8009 248.25 77.2748 248.215 76.7497C248.181 76.2245 248.028 75.713 247.766 75.2512C247.505 74.7894 247.142 74.3885 246.702 74.0767C245.963 73.5506 245.048 73.3063 244.134 73.3906C243.219 73.4749 242.369 73.8819 241.746 74.5335C235.315 80.7519 228.102 86.1687 220.276 90.6573C219.815 90.9054 219.421 91.2554 219.127 91.6788C218.833 92.1021 218.647 92.5867 218.585 93.0928C218.522 93.5989 218.585 94.1121 218.767 94.5903C218.95 95.0685 219.248 95.4981 219.636 95.8438C220.142 96.2949 220.778 96.5857 221.46 96.677C222.142 96.7683 222.837 96.6557 223.451 96.3544Z" fill="#2D2D2D"/>
</svg>
