<svg width="65" height="40" viewBox="0 0 65 40" fill="none" xmlns="http://www.w3.org/2000/svg">
<path d="M58.1 20C61.7 19 64.2 16.5 64.2 13.6C64.2 9.8 59.9 6.8 54.7 6.8C53.7 6.8 52.7 6.9 51.8 7.1C51.9 6.8 51.9 6.4 51.9 6.1C51.9 2.7 47.6 0 42.4 0C38 0 34.3 1.9 33.2 4.5C31.8 2.6 29.1 1.3 26 1.3C21.5 1.3 17.8 4 17.8 7.4C17.8 7.5 17.8 7.7 17.8 7.8C16.4 7.1 14.8 6.7 13 6.7C8.1 6.7 4.10001 9.7 4.10001 13.5C4.10001 14.3 4.30001 15.1 4.60001 15.8C1.80001 17 0 19.2 0 21.6C0 24.3 2.3 26.7 5.5 27.8C5.5 28 5.5 28.2 5.5 28.4C5.5 32.2 9.8 35.2 15 35.2C15.7 35.2 16.4 35.1 17.1 35C18.5 37.5 21.9 39.3 25.9 39.3C29.4 39.3 32.5 37.9 34.1 35.9C35.8 37.1 38.2 37.9 40.9 37.9C45.7 37.9 49.6 35.4 50.3 32.1C51.2 32.3 52.2 32.4 53.1 32.4C58.4 32.4 62.6 29.4 62.6 25.6C62.9 23.4 61 21.2 58.1 20Z" fill="white"/>
</svg>
