<svg width="69" height="50" viewBox="0 0 69 50" fill="none" xmlns="http://www.w3.org/2000/svg">
<path d="M65.7 23.4914C67.1 22.1914 68 20.4914 68.1 18.6914C68.6 13.6914 63.8 9.09142 57.3 8.49142C56.2 8.39141 55.1 8.39141 54 8.49142C53.9 4.39142 49.4 0.691421 43.6 0.091421C39.1 -0.408579 35 1.19143 33 3.69143C30.8 2.39143 27.9 1.59142 24.8 1.59142C17.8 1.59142 12.1 5.59142 12.1 10.5914C12.1 10.9914 12.2 11.3914 12.2 11.7914C6.50001 11.7914 1.69998 14.7914 0.599976 19.4914C-2.44379e-05 22.2914 0.800012 25.1914 2.70001 27.5914C1.00001 29.1914 0 31.3914 0 33.6914C0 38.8914 5.29999 43.1914 11.8 43.1914C12.1 43.1914 12.3 43.1914 12.6 43.1914C14.2 46.6914 17.9 49.2914 22.5 49.7914C26.7 50.1914 30.6 48.5914 33 45.9914C34.7 47.1914 36.8 47.9914 39.1 48.1914C45.6 48.7914 51.3 44.7914 51.8 39.1914C51.8 39.0914 51.8 38.9914 51.8 38.9914C53 39.4914 54.2 39.7914 55.6 39.9914C62.1 40.5914 67.8 36.5914 68.3 30.9914C68.5 28.0914 67.5 25.4914 65.7 23.4914Z" fill="white"/>
</svg>
