<svg width="94" height="129" viewBox="0 0 94 129" fill="none" xmlns="http://www.w3.org/2000/svg">
<path d="M86.2401 70.1043C90.1614 70.1043 93.3401 66.9255 93.3401 63.0043C93.3401 59.0831 90.1614 55.9043 86.2401 55.9043C82.3189 55.9043 79.1401 59.0831 79.1401 63.0043C79.1401 66.9255 82.3189 70.1043 86.2401 70.1043Z" fill="#FFB74C"/>
<path d="M47.2902 72.2643C51.136 68.42 53.556 63.3792 54.1505 57.974C54.745 52.5689 53.4785 47.1226 50.5602 42.5343C53.5102 38.5943 59.5602 32.3543 63.2602 29.7943C66.5883 31.3934 70.3743 31.7658 73.9503 30.846C77.5263 29.9261 80.6626 27.773 82.806 24.7664C84.9494 21.7598 85.9623 18.0928 85.6659 14.4123C85.3696 10.7318 83.783 7.27422 81.1862 4.64931C78.5893 2.0244 75.1489 0.400841 71.4718 0.0649829C67.7947 -0.270875 64.1171 0.702548 61.0877 2.81356C58.0582 4.92458 55.8716 8.03757 54.9133 11.6035C53.9551 15.1694 54.2869 18.9591 55.8502 22.3043C52.1865 27.0947 47.9519 31.42 43.2402 35.1843C39.4417 32.7531 35.0332 31.4453 30.5234 31.4117C26.0137 31.3782 21.5863 32.6202 17.752 34.9946C13.9177 37.369 10.8328 40.779 8.85314 44.8312C6.87347 48.8833 6.0797 53.4126 6.5634 57.8965C7.0471 62.3804 8.78856 66.6362 11.5869 70.173C14.3852 73.7098 18.1264 76.3834 22.3788 77.8854C26.6313 79.3875 31.2217 79.6567 35.6206 78.6621C40.0195 77.6675 44.0475 75.4496 47.2402 72.2643H47.2902Z" fill="#E2E2E2"/>
<path d="M7.00015 82.5342C10.8451 86.3784 15.885 88.7979 21.2893 89.3941C26.6935 89.9904 32.1396 88.7277 36.7301 85.8142C40.6101 88.7142 46.7301 94.6242 49.3501 98.3442C46.9429 102.493 46.1231 107.375 47.0427 112.083C47.9624 116.791 50.5591 121.006 54.3508 123.944C58.1426 126.882 62.8717 128.345 67.6602 128.06C72.4487 127.776 76.9714 125.763 80.3885 122.397C83.8056 119.03 85.885 114.538 86.2407 109.754C86.5964 104.97 85.2042 100.22 82.3226 96.3851C79.441 92.5501 75.2657 89.891 70.572 88.9014C65.8782 87.9118 60.9847 88.659 56.8001 91.0042C52.0737 87.3592 47.806 83.1552 44.0901 78.4842C46.5139 74.6822 47.8137 70.2725 47.8396 65.7637C47.8656 61.2549 46.6166 56.8306 44.2368 53.0009C41.857 49.1712 38.4432 46.0922 34.3891 44.1188C30.335 42.1454 25.8058 41.358 21.3235 41.8474C16.8413 42.3368 12.5887 44.0832 9.056 46.885C5.52335 49.6868 2.85453 53.4301 1.3573 57.6831C-0.139935 61.9361 -0.404613 66.5257 0.593786 70.9227C1.59219 75.3196 3.813 79.3448 7.00015 82.5342Z" fill="#74AD5D"/>
<path d="M9.59015 119.394C12.4896 119.394 14.8401 117.044 14.8401 114.144C14.8401 111.245 12.4896 108.894 9.59015 108.894C6.69065 108.894 4.34015 111.245 4.34015 114.144C4.34015 117.044 6.69065 119.394 9.59015 119.394Z" fill="#FFB74C"/>
</svg>
