<svg width="700" height="728" viewBox="0 0 700 728" fill="none" xmlns="http://www.w3.org/2000/svg">
<path d="M365.694 341.408C349.2 357.887 338.694 379.41 335.85 402.551C333.006 425.693 337.987 449.12 350.001 469.102C338.202 486.828 305.291 521.432 286.718 533.795C264.852 520.567 238.896 515.811 213.759 520.427C188.623 525.043 166.05 538.711 150.31 558.845C134.57 578.979 126.755 604.184 128.342 629.691C129.93 655.198 140.81 679.239 158.925 697.266C177.04 715.294 201.133 726.057 226.647 727.521C252.162 728.985 277.328 721.047 297.386 705.21C317.444 689.373 331.002 666.734 335.496 641.576C339.99 616.418 335.109 590.485 321.775 568.682C334.928 549.658 367.952 516.126 385.847 504.497C402.603 514.614 421.866 519.816 441.437 519.509C461.008 519.202 480.098 513.398 496.528 502.76C512.958 492.123 526.066 477.079 534.356 459.348C542.645 441.617 545.782 421.912 543.408 402.483C541.034 383.054 533.245 364.685 520.93 349.471C508.615 334.257 492.271 322.813 473.763 316.444C455.255 310.075 435.329 309.039 416.26 313.453C397.19 317.867 379.747 327.554 365.92 341.408L365.694 341.408Z" fill="#E2E2E2"/>
<path d="M194.7 226.359C216.516 248.138 245.235 261.639 275.924 264.545C306.612 267.45 337.355 259.577 362.87 242.279C383.07 258.911 401.461 277.624 417.741 298.109C399.387 325.443 391.854 358.624 396.604 391.203C401.355 423.782 418.05 453.431 443.445 474.385C468.839 495.339 501.118 506.102 534.006 504.581C566.895 503.06 598.043 489.364 621.394 466.155C644.746 442.946 658.634 411.883 660.357 379.005C662.08 346.126 651.516 313.782 630.718 288.259C609.92 262.736 580.375 245.859 547.826 240.909C515.276 235.958 482.049 243.287 454.603 261.472C434.015 245.306 415.103 227.112 398.152 207.166C412.29 186.336 420.21 161.914 420.986 136.752C421.762 111.589 415.363 86.7251 402.535 65.0639C389.707 43.4028 370.981 25.8387 348.544 14.4232C326.106 3.00766 300.884 -1.78791 275.822 0.596566C250.761 2.98104 226.896 12.4471 207.013 27.8892C187.131 43.3312 172.053 64.1116 163.541 87.8032C155.028 111.495 153.433 137.119 158.94 161.684C164.448 186.249 176.831 208.739 194.644 226.529L194.7 226.359Z" fill="#74AD5D"/>
<path d="M62.0966 304.038C27.8014 304.038 -0.000243343 331.839 -0.000246341 366.134C-0.00024934 400.43 27.8014 428.231 62.0966 428.231C96.3917 428.231 124.193 400.43 124.193 366.134C124.193 331.839 96.3917 304.038 62.0966 304.038Z" fill="#FFB74C"/>
<path d="M654.839 89.5209C629.897 89.5209 609.677 109.74 609.677 134.682C609.677 159.624 629.897 179.843 654.839 179.844C679.781 179.844 700 159.624 700 134.682C700 109.74 679.781 89.5209 654.839 89.5209Z" fill="#FFB74C"/>
</svg>
