<svg width="589" height="225" viewBox="0 0 589 225" fill="none" xmlns="http://www.w3.org/2000/svg">
<g filter="url(#filter0_d)">
<path d="M427.001 99.0138C426.982 96.6193 427.456 94.2467 428.395 92.0437C429.315 89.903 430.632 87.9555 432.276 86.3036C433.923 84.6542 435.872 83.3365 438.016 82.4221C440.215 81.4676 442.589 80.9835 444.986 81.0008C447.384 80.9778 449.759 81.4622 451.956 82.4221C454.108 83.3229 456.059 84.6422 457.696 86.3036C459.349 87.9481 460.667 89.8975 461.578 92.0437C462.538 94.2408 463.022 96.6162 462.999 99.0138C463.017 101.411 462.532 103.785 461.578 105.984C459.73 110.311 456.283 113.758 451.956 115.605C449.753 116.544 447.381 117.018 444.986 116.999C442.592 117.013 440.221 116.539 438.016 115.605C435.882 114.672 433.937 113.356 432.276 111.724C430.638 110.067 429.322 108.121 428.395 105.984C427.461 103.779 426.987 101.408 427.001 99.0138Z" fill="#FFB74C"/>
<path d="M458 144.025C458 136.279 452.18 130 445 130C437.82 130 432 136.279 432 144.025V202.975C432 210.721 437.82 217 445 217C452.18 217 458 210.721 458 202.975V144.025Z" fill="#2D2D2D"/>
<path d="M558.932 111.789H522.757C521.005 111.789 519.324 112.511 518.086 113.796C516.847 115.081 516.151 116.824 516.151 118.641V129.603C516.151 131.42 516.847 133.163 518.086 134.448C519.324 135.733 521.005 136.455 522.757 136.455H559.751C560.625 136.451 561.49 136.626 562.298 136.97C563.105 137.314 563.84 137.82 564.458 138.46C565.077 139.099 565.568 139.858 565.903 140.695C566.238 141.531 566.41 142.428 566.41 143.333V157.036C566.414 157.946 566.244 158.847 565.911 159.688C565.578 160.529 565.088 161.293 564.469 161.937C563.851 162.582 563.115 163.093 562.306 163.442C561.496 163.79 560.628 163.97 559.751 163.97H522.757C521.89 163.966 521.032 164.14 520.231 164.481C519.429 164.823 518.701 165.325 518.087 165.959C517.473 166.593 516.986 167.346 516.654 168.176C516.322 169.006 516.151 169.895 516.151 170.794V182.414C516.164 184.224 516.866 185.956 518.102 187.233C519.339 188.51 521.011 189.231 522.757 189.238H558.906C561.583 189.238 564.15 190.341 566.043 192.304C567.937 194.268 569 196.93 569 199.707V206.531C569 212.314 564.481 217 550.344 217H493.531C491.823 216.504 490.27 215.552 489.028 214.239C487.785 212.926 486.896 211.298 486.449 209.518C486.163 208.437 486.012 207.323 486 206.202V94.9623C485.999 92.0971 487.08 89.3456 489.011 87.2967C490.942 85.2478 493.57 84.0645 496.332 84H558.826C561.504 84 564.071 85.103 565.964 87.0663C567.857 89.0296 568.921 91.6924 568.921 94.469V101.293C568.928 104.055 567.882 106.709 566.011 108.675C564.14 110.641 561.596 111.76 558.932 111.789Z" fill="#2D2D2D"/>
<path d="M50.1452 168.249C50.0065 168.987 49.7202 169.687 49.3047 170.305C48.8892 170.922 48.3536 171.444 47.732 171.836C47.1104 172.228 46.4165 172.482 45.6945 172.582C44.9725 172.682 44.2382 172.625 43.5385 172.416C41.8488 171.828 40.0781 171.527 38.2951 171.523C36.5031 171.528 34.7267 171.867 33.0516 172.524C31.4438 173.125 29.9654 174.044 28.6995 175.23C27.4589 176.437 26.4689 177.892 25.7894 179.505C25.0126 181.31 24.6278 183.268 24.6621 185.242C24.6408 187.102 24.9981 188.946 25.7108 190.654C26.3874 192.264 27.3576 193.725 28.5685 194.956C29.824 196.157 31.3054 197.078 32.9205 197.662C34.6358 198.339 36.4587 198.679 38.2951 198.664C39.748 198.671 41.195 198.471 42.5947 198.068C43.4324 197.828 44.3094 197.769 45.1702 197.896C46.031 198.023 46.857 198.333 47.596 198.806C48.335 199.279 48.9711 199.904 49.464 200.644C49.9569 201.383 50.296 202.22 50.4598 203.101L50.8531 205.131C51.1645 206.645 50.9777 208.222 50.3224 209.614C49.6671 211.006 48.5807 212.133 47.2351 212.816C43.3156 214.469 39.0881 215.199 34.8606 214.953C30.8665 214.969 26.9005 214.263 23.1415 212.87C19.5186 211.538 16.1734 209.509 13.2838 206.89C10.4988 204.253 8.23711 201.082 6.62464 197.554C4.87451 193.76 3.97825 189.607 4.00292 185.404C3.94608 181.32 4.71929 177.269 6.27269 173.513C7.82609 169.756 10.1252 166.378 13.0216 163.595C15.9029 160.856 19.2796 158.732 22.958 157.344C26.9505 155.774 31.1913 154.985 35.4636 155.017C38.7279 154.901 41.986 155.387 45.0853 156.451C47.0683 157.236 48.7109 158.732 49.7124 160.665C50.7138 162.598 51.0071 164.839 50.5385 166.977L50.1452 168.249Z" fill="#2D2D2D"/>
<path d="M136.586 158.968H142.878C143.738 158.968 144.59 159.137 145.384 159.465C146.178 159.794 146.899 160.274 147.506 160.88C148.113 161.487 148.594 162.206 148.92 162.997C149.247 163.788 149.414 164.636 149.41 165.491C154.169 160.778 160.61 158.128 167.326 158.12C170.663 157.983 173.982 158.65 177.004 160.062C180.026 161.475 182.66 163.592 184.683 166.233C184.833 166.447 185.032 166.621 185.264 166.741C185.497 166.862 185.754 166.924 186.016 166.924C186.278 166.924 186.536 166.862 186.768 166.741C187 166.621 187.199 166.447 187.349 166.233C189.362 163.574 191.992 161.438 195.014 160.006C198.036 158.575 201.361 157.892 204.706 158.014C207.173 158.004 209.628 158.371 211.984 159.101C214.186 159.777 216.202 160.947 217.876 162.521C219.613 164.221 220.943 166.287 221.769 168.567C222.715 171.456 223.121 174.494 222.969 177.529V206.324C222.979 207.065 222.842 207.801 222.564 208.489C222.286 209.177 221.873 209.803 221.35 210.331C220.826 210.859 220.202 211.278 219.515 211.564C218.827 211.85 218.089 211.998 217.343 211.998H209.345C207.846 211.998 206.408 211.405 205.348 210.351C204.288 209.297 203.692 207.867 203.692 206.377V185.801C203.741 183.586 203.544 181.372 203.106 179.199C202.844 177.747 202.261 176.37 201.4 175.169C200.732 174.261 199.802 173.577 198.733 173.207C197.695 172.853 196.605 172.674 195.507 172.677C189.304 172.677 186.203 177.096 186.203 185.934V206.456C186.182 207.915 185.592 209.309 184.557 210.343C183.522 211.377 182.124 211.97 180.657 211.998H172.392C170.898 211.991 169.467 211.395 168.413 210.342C167.358 209.289 166.767 207.863 166.767 206.377V185.801C166.801 183.571 166.622 181.343 166.233 179.146C165.983 177.638 165.45 176.189 164.66 174.877C164.029 173.899 163.093 173.153 161.994 172.756C160.79 172.364 159.528 172.176 158.262 172.199C157.096 172.186 155.935 172.356 154.822 172.703C153.707 173.093 152.726 173.793 151.996 174.718C151.067 175.948 150.404 177.357 150.05 178.854C149.539 181.107 149.306 183.413 149.357 185.722V206.244C149.378 206.988 149.25 207.728 148.98 208.422C148.71 209.115 148.304 209.749 147.785 210.284C147.266 210.82 146.645 211.248 145.958 211.542C145.271 211.836 144.532 211.991 143.785 211.998H135.786C135.027 212.019 134.272 211.888 133.565 211.611C132.859 211.335 132.216 210.919 131.675 210.389C131.135 209.859 130.708 209.225 130.42 208.527C130.132 207.828 129.989 207.079 130.001 206.324V165.465C130.001 164.607 130.171 163.758 130.503 162.966C130.834 162.175 131.32 161.456 131.933 160.852C132.545 160.248 133.271 159.771 134.07 159.448C134.869 159.124 135.724 158.961 136.586 158.968Z" fill="#2D2D2D"/>
<path d="M243.386 158.942H249.614C250.465 158.942 251.308 159.111 252.094 159.44C252.88 159.768 253.594 160.249 254.195 160.855C254.796 161.462 255.271 162.181 255.595 162.973C255.918 163.765 256.083 164.613 256.079 165.468C260.762 160.795 267.082 158.156 273.681 158.12C276.983 157.983 280.269 158.65 283.26 160.063C286.251 161.476 288.858 163.595 290.86 166.238C291.009 166.451 291.206 166.625 291.436 166.746C291.665 166.866 291.921 166.929 292.18 166.929C292.439 166.929 292.694 166.866 292.924 166.746C293.153 166.625 293.351 166.451 293.499 166.238C295.492 163.577 298.094 161.439 301.085 160.007C304.076 158.576 307.368 157.892 310.678 158.014C313.121 158.004 315.551 158.371 317.883 159.102C320.062 159.778 322.057 160.949 323.715 162.524C325.433 164.224 326.75 166.291 327.567 168.572C328.584 171.448 329.067 174.487 328.992 177.539V206.322C329.003 207.073 328.864 207.818 328.582 208.513C328.3 209.209 327.882 209.84 327.353 210.37C326.824 210.899 326.194 211.317 325.501 211.597C324.808 211.876 324.066 212.013 323.319 211.999H315.402C313.918 211.999 312.495 211.406 311.446 210.352C310.397 209.297 309.808 207.867 309.808 206.375V185.789C309.855 183.572 309.661 181.357 309.227 179.183C308.968 177.73 308.391 176.353 307.538 175.151C306.877 174.243 305.957 173.558 304.899 173.188C303.872 172.834 302.792 172.655 301.706 172.658C295.566 172.658 292.496 177.079 292.496 185.922V206.455C292.475 207.937 291.873 209.351 290.821 210.389C289.768 211.428 288.35 212.006 286.875 211.999H278.827C277.348 211.992 275.931 211.396 274.888 210.342C273.844 209.288 273.259 207.862 273.259 206.375V185.789C273.292 183.558 273.116 181.328 272.731 179.13C272.47 177.654 271.952 176.235 271.2 174.939C270.576 173.96 269.649 173.214 268.561 172.817C267.37 172.425 266.121 172.236 264.867 172.26C263.713 172.246 262.564 172.416 261.463 172.764C260.355 173.148 259.383 173.848 258.666 174.78C257.746 176.011 257.09 177.42 256.739 178.918C256.233 181.172 256.003 183.479 256.053 185.789V206.322C256.063 207.064 255.927 207.8 255.652 208.488C255.377 209.177 254.968 209.803 254.45 210.331C253.932 210.86 253.315 211.279 252.634 211.565C251.953 211.852 251.223 211.999 250.485 211.999H242.568C241.835 211.999 241.109 211.853 240.431 211.57C239.754 211.287 239.139 210.873 238.622 210.35C238.104 209.828 237.695 209.207 237.416 208.525C237.138 207.843 236.997 207.112 237 206.375V165.442C237 163.732 237.67 162.091 238.866 160.874C240.061 159.657 241.685 158.963 243.386 158.942Z" fill="#2D2D2D"/>
<path d="M360.35 164.503V188.883C360.336 190.254 360.584 191.614 361.078 192.884C361.573 194.153 362.305 195.308 363.232 196.28C364.158 197.251 365.261 198.021 366.475 198.544C367.69 199.067 368.992 199.332 370.306 199.325C376.608 199.214 379.76 195.817 379.76 189.131V164.503C379.767 162.776 380.429 161.122 381.602 159.904C382.775 158.685 384.363 158.001 386.018 158.001H392.725C394.381 158.008 395.966 158.699 397.134 159.923C398.302 161.147 398.958 162.803 398.958 164.53V192.74C399.165 195.94 398.61 199.144 397.343 202.067C396.076 204.989 394.136 207.539 391.696 209.49C386.854 213.163 379.628 215 370.015 215C360.403 215 353.176 213.163 348.335 209.49C345.879 207.552 343.926 205.005 342.653 202.08C341.38 199.155 340.828 195.945 341.047 192.74V164.503C341.054 162.776 341.716 161.122 342.889 159.904C344.062 158.685 345.65 158.001 347.305 158.001H354.013C354.84 157.986 355.662 158.144 356.43 158.464C357.198 158.784 357.898 159.261 358.488 159.866C359.078 160.471 359.546 161.193 359.866 161.989C360.186 162.785 360.35 163.639 360.35 164.503Z" fill="#2D2D2D"/>
<path d="M89 156C83.2644 156 77.6575 157.73 72.8885 160.972C68.1195 164.213 64.4024 168.82 62.2075 174.211C60.0126 179.601 59.4383 185.533 60.5572 191.255C61.6762 196.978 64.4382 202.234 68.4939 206.36C72.5496 210.485 77.7169 213.295 83.3424 214.433C88.9678 215.571 94.7988 214.987 100.098 212.754C105.397 210.522 109.926 206.741 113.113 201.889C116.299 197.038 118 191.335 118 185.5C118 181.626 117.25 177.79 115.793 174.211C114.335 170.632 112.199 167.38 109.506 164.64C106.813 161.901 103.616 159.728 100.098 158.246C96.5794 156.763 92.8083 156 89 156ZM89 198.909C86.3929 198.909 83.8443 198.123 81.6766 196.649C79.5088 195.176 77.8193 193.082 76.8216 190.631C75.8239 188.181 75.5629 185.485 76.0715 182.884C76.5801 180.283 77.8355 177.894 79.6791 176.018C81.5226 174.143 83.8713 172.866 86.4284 172.349C88.9854 171.831 91.6358 172.097 94.0445 173.112C96.4531 174.127 98.5119 175.845 99.9603 178.05C101.409 180.255 102.182 182.848 102.182 185.5C102.182 189.056 100.793 192.467 98.321 194.982C95.8489 197.496 92.496 198.909 89 198.909Z" fill="#2D2D2D"/>
<path d="M491.136 1.14741L407.442 48.6232C406.415 49.3349 405.651 50.3723 405.27 51.5723C404.889 52.7722 404.912 54.0665 405.336 55.2515C405.76 56.4365 406.561 57.445 407.612 58.1183C408.664 58.7916 409.907 59.0915 411.145 58.9708H578.824C580.065 59.0988 581.312 58.8041 582.369 58.1332C583.426 57.4624 584.232 56.4538 584.66 55.2668C585.087 54.0798 585.113 52.7821 584.731 51.5789C584.35 50.3757 583.584 49.3357 582.554 48.6232L498.569 1.14741C497.47 0.399439 496.176 0 494.852 0C493.528 0 492.235 0.399439 491.136 1.14741Z" fill="#74AD5D"/>
<path d="M91.4243 80.0023C91.4313 79.07 91.7928 78.1784 92.4299 77.5217C93.067 76.8651 93.9281 76.4966 94.8256 76.4966H117.04C117.776 76.493 118.504 76.6403 119.184 76.93C119.864 77.2196 120.483 77.6461 121.004 78.1847C121.525 78.7233 121.938 79.3636 122.22 80.0687C122.502 80.7738 122.647 81.5299 122.647 82.2934V98.8557C122.633 100.388 122.036 101.853 120.985 102.929C119.934 104.005 118.516 104.605 117.04 104.597H94.8256C93.9281 104.597 93.067 104.229 92.4299 103.572C91.7928 102.915 91.4313 102.024 91.4243 101.092C91.4313 100.159 91.7928 99.2676 92.4299 98.611C93.067 97.9543 93.9281 97.5859 94.8256 97.5859H114.383V83.508H94.8256C93.9281 83.508 93.067 83.1396 92.4299 82.4829C91.7928 81.8262 91.4313 80.9346 91.4243 80.0023Z" fill="#2D2D2D"/>
<path d="M148.194 71.7612C148.669 71.0708 149.392 70.573 150.225 70.3626C151.058 70.1522 151.942 70.2439 152.708 70.6204L158.207 73.2418C158.642 73.4608 159.025 73.764 159.332 74.1324C159.639 74.5007 159.864 74.9263 159.992 75.3823C160.12 75.8383 160.148 76.3149 160.076 76.782C160.003 77.2491 159.83 77.6966 159.569 78.0964C159.089 78.7887 158.363 79.2888 157.527 79.5033C156.692 79.7177 155.804 79.6318 155.029 79.2615L149.556 76.6158C149.115 76.4024 148.726 76.1021 148.415 75.7343C148.103 75.3665 147.875 74.9396 147.747 74.4815C147.618 74.0233 147.592 73.5442 147.669 73.0755C147.746 72.6067 147.924 72.1589 148.194 71.7612Z" fill="#2D2D2D"/>
<path d="M157.775 90.5282L158.121 89.9421C158.34 89.5593 158.479 89.1344 158.531 88.6938C158.583 88.2532 158.546 87.8063 158.423 87.3809C158.3 86.9555 158.093 86.5607 157.816 86.2211C157.538 85.8815 157.196 85.6043 156.809 85.4067L152.675 83.139C151.904 82.7309 151.013 82.6327 150.176 82.8635C149.339 83.0943 148.615 83.6375 148.145 84.3875C147.893 84.8098 147.728 85.2809 147.661 85.7715C147.593 86.2621 147.624 86.7618 147.752 87.2396C147.879 87.7173 148.101 88.163 148.403 88.549C148.705 88.935 149.08 89.2531 149.507 89.4835L153.591 91.7257C154.304 92.1182 155.137 92.2128 155.916 91.9898C156.695 91.7668 157.361 91.2433 157.775 90.5282Z" fill="#2D2D2D"/>
<path d="M148.653 95.6005L159.638 100.735C160.105 100.952 160.517 101.259 160.847 101.636C161.177 102.013 161.417 102.451 161.551 102.922C161.686 103.392 161.712 103.884 161.627 104.365C161.543 104.846 161.35 105.304 161.061 105.709L160.691 106.188C160.196 106.885 159.445 107.388 158.58 107.604C157.715 107.819 156.796 107.732 155.995 107.359L145.095 102.278C144.604 102.038 144.172 101.705 143.825 101.302C143.479 100.898 143.225 100.432 143.081 99.9319C142.937 99.4321 142.905 98.9098 142.987 98.3979C143.069 97.886 143.263 97.3955 143.558 96.9573C144.082 96.1869 144.89 95.6231 145.829 95.373C146.768 95.1229 147.773 95.2039 148.653 95.6005Z" fill="#2D2D2D"/>
<path d="M183.067 88.9338C183.067 88.1284 183.396 87.3553 183.982 86.781C184.569 86.2067 185.367 85.8772 186.203 85.8635H198.912C199.33 85.8635 199.743 85.9431 200.129 86.0977C200.514 86.2523 200.864 86.4789 201.158 86.7643C201.452 87.0498 201.685 87.3885 201.842 87.7608C202 88.1332 202.079 88.5318 202.075 88.9338V99.3415C202.075 99.5416 202.158 99.7335 202.305 99.875C202.452 100.017 202.652 100.096 202.859 100.096H205.266C205.684 100.086 206.099 100.155 206.489 100.3C206.879 100.445 207.235 100.663 207.536 100.941C207.838 101.22 208.08 101.553 208.247 101.921C208.414 102.289 208.504 102.686 208.511 103.088C208.511 103.491 208.428 103.891 208.268 104.263C208.107 104.636 207.872 104.974 207.576 105.259C207.28 105.544 206.928 105.77 206.541 105.925C206.154 106.079 205.739 106.158 205.32 106.158H182.012C181.595 106.159 181.181 106.079 180.796 105.924C180.41 105.77 180.06 105.543 179.766 105.258C179.472 104.972 179.239 104.634 179.082 104.261C178.924 103.889 178.845 103.49 178.849 103.088C178.849 102.281 179.182 101.507 179.775 100.936C180.369 100.365 181.173 100.044 182.012 100.044H195.775V91.978H186.203C185.369 91.9712 184.571 91.6474 183.984 91.0773C183.397 90.5071 183.067 89.7367 183.067 88.9338Z" fill="#2D2D2D"/>
<path d="M275.851 79.619H303.447C304.36 79.619 305.234 79.9869 305.879 80.6418C306.524 81.2967 306.887 82.1849 306.887 83.111C306.887 84.0371 306.524 84.9253 305.879 85.5802C305.234 86.235 304.36 86.6029 303.447 86.6029H293.102V100.598H308.078C308.532 100.595 308.983 100.682 309.403 100.856C309.823 101.03 310.206 101.287 310.528 101.611C310.85 101.936 311.106 102.322 311.281 102.747C311.455 103.173 311.545 103.629 311.545 104.09C311.559 104.562 311.48 105.031 311.313 105.471C311.145 105.911 310.892 106.312 310.569 106.65C310.245 106.989 309.858 107.258 309.43 107.442C309.003 107.625 308.543 107.72 308.078 107.72H271.274C270.82 107.72 270.37 107.628 269.951 107.451C269.532 107.274 269.152 107.014 268.832 106.687C268.512 106.36 268.26 105.972 268.088 105.545C267.917 105.118 267.831 104.661 267.834 104.2C267.834 103.742 267.923 103.288 268.096 102.864C268.269 102.44 268.522 102.055 268.842 101.731C269.161 101.407 269.54 101.15 269.958 100.974C270.375 100.799 270.822 100.708 271.274 100.708H286.196V86.7129H275.905C275.45 86.7129 274.999 86.6219 274.578 86.445C274.158 86.2681 273.776 86.0089 273.454 85.6821C273.132 85.3553 272.876 84.9673 272.702 84.5403C272.528 84.1133 272.438 83.6556 272.438 83.1935C272.42 82.7284 272.495 82.2643 272.659 81.8295C272.822 81.3946 273.071 80.9981 273.39 80.6638C273.709 80.3296 274.092 80.0646 274.515 79.885C274.938 79.7054 275.392 79.6149 275.851 79.619Z" fill="#2D2D2D"/>
<path d="M227.451 96.3544C231.126 94.4198 234.661 92.2471 238.032 89.8511L237.726 105.357C237.707 105.87 237.797 106.382 237.989 106.861C238.181 107.34 238.472 107.776 238.845 108.143C239.217 108.51 239.663 108.8 240.155 108.996C240.648 109.191 241.176 109.288 241.708 109.28C242.231 109.284 242.749 109.187 243.232 108.995C243.715 108.802 244.154 108.519 244.522 108.161C244.891 107.803 245.181 107.378 245.377 106.91C245.573 106.443 245.67 105.942 245.662 105.437L245.495 84.6109L251.064 79.5857C251.459 79.2228 251.767 78.7809 251.966 78.2909C252.165 77.8009 252.25 77.2748 252.215 76.7497C252.181 76.2245 252.028 75.713 251.766 75.2512C251.505 74.7894 251.142 74.3885 250.702 74.0767C249.963 73.5506 249.048 73.3063 248.134 73.3906C247.219 73.4749 246.369 73.8819 245.746 74.5335C239.315 80.7519 232.102 86.1687 224.276 90.6573C223.815 90.9054 223.421 91.2554 223.127 91.6788C222.833 92.1021 222.647 92.5867 222.585 93.0928C222.522 93.5989 222.585 94.1121 222.767 94.5903C222.95 95.0685 223.248 95.4981 223.636 95.8438C224.142 96.2949 224.778 96.5857 225.46 96.677C226.142 96.7683 226.837 96.6557 227.451 96.3544Z" fill="#2D2D2D"/>
</g>
<defs>
<filter id="filter0_d" x="0" y="0" width="589" height="225" filterUnits="userSpaceOnUse" color-interpolation-filters="sRGB">
<feFlood flood-opacity="0" result="BackgroundImageFix"/>
<feColorMatrix in="SourceAlpha" type="matrix" values="0 0 0 0 0 0 0 0 0 0 0 0 0 0 0 0 0 0 127 0"/>
<feOffset dy="4"/>
<feGaussianBlur stdDeviation="2"/>
<feColorMatrix type="matrix" values="0 0 0 0 0 0 0 0 0 0 0 0 0 0 0 0 0 0 0.25 0"/>
<feBlend mode="normal" in2="BackgroundImageFix" result="effect1_dropShadow"/>
<feBlend mode="normal" in="SourceGraphic" in2="effect1_dropShadow" result="shape"/>
</filter>
</defs>
</svg>
