<svg width="1412" height="768" viewBox="0 0 1412 768" fill="none" xmlns="http://www.w3.org/2000/svg">
<path d="M1412 0H0V768H1412V0Z" fill="#8BD4FD"/>
<path d="M199.62 599.94C199.38 591.94 195.77 575.55 191.62 575.67C187.47 575.79 184.38 592.4 184.62 600.4C184.84 607.59 187.12 609.45 191.03 609.65L191.37 620.7L194.12 620.62L193.78 609.62C198 609.16 199.85 607.2 199.62 599.94Z" fill="#5AA754"/>
<path d="M217.93 603.39C217.68 595.39 215.22 583.96 211.08 584.09C206.94 584.22 204.69 595.78 204.93 603.78C205.04 607.4 207.83 608.67 210.09 608.99L210.43 620.12L213.43 620.03L213.09 608.93C215.52 608.51 218 607.1 217.93 603.39Z" fill="#75BB61"/>
<path d="M417.88 569.84C413.73 569.84 411.31 581.34 411.12 589.34C411.02 594.11 414.29 594.75 416.62 594.83V603.83H418.62V594.83C421.18 594.77 424.01 594.2 424.12 589.34C424.31 581.34 422 569.84 417.88 569.84Z" fill="#4BA336"/>
<path d="M898.25 563.39C894.11 563.39 891.68 574.89 891.5 582.89C891.39 587.66 894.66 588.3 897 588.38V597.38H899V588.38C901.55 588.31 904.39 587.74 904.5 582.88C904.68 574.89 902.39 563.39 898.25 563.39Z" fill="#4BA336"/>
<path d="M512.25 561.39C509 561.39 505.68 575.89 505.5 583.89C505.39 588.66 508.66 589.3 511 589.38V600.38H513V589.38C515.55 589.31 518.39 588.74 518.5 583.88C518.68 575.89 515 561.39 512.25 561.39Z" fill="#74AD5D"/>
<path d="M659.06 578.89C659.13 570.89 654.56 558.39 651.81 558.39C648.56 558.39 644.13 570.89 644.06 578.89C644.06 585.74 646.14 586.34 650.31 586.39V598.39H652.81V586.39C657 586.34 659 585.74 659.06 578.89Z" fill="#4BA336"/>
<path d="M854.06 576.89C854.13 568.89 849.56 556.39 846.81 556.39C843.56 556.39 839.13 568.89 839.06 576.89C839.06 583.74 841.14 584.34 845.31 584.39V596.39H847.81V584.39C852 584.34 854 583.74 854.06 576.89Z" fill="#4BA336"/>
<path d="M878.06 576.89C878.13 568.89 873.56 556.39 870.81 556.39C867.56 556.39 863.13 568.89 863.06 576.89C863.06 583.74 865.14 584.34 869.31 584.39V596.39H871.81V584.39C876 584.34 878 583.74 878.06 576.89Z" fill="#8AD871"/>
<path d="M774.06 575.89C774.13 567.89 769.56 555.39 766.81 555.39C763.56 555.39 759.13 567.89 759.06 575.89C759.06 582.74 761.14 583.34 765.31 583.39V595.39H767.81V583.39C772 583.34 774 582.74 774.06 575.89Z" fill="#75BB61"/>
<path d="M990.06 583.89C990.13 575.89 985.56 563.39 982.81 563.39C979.56 563.39 975.13 575.89 975.06 583.89C975.06 590.74 977.14 591.34 981.31 591.39V603.39H983.81V591.39C988 591.34 990 590.74 990.06 583.89Z" fill="#5AA754"/>
<path d="M1400 615.46C1400.67 607.46 1397.07 594.68 1394.32 594.46C1391.08 594.22 1385.72 606.34 1385.05 614.32C1384.47 621.14 1386.56 621.89 1390.71 622.26L1389.8 634.26L1392.3 634.45L1393.2 622.45C1397.35 622.72 1399.43 622.28 1400 615.46Z" fill="#4BA336"/>
<path d="M674 596.39V563.39H687V568.39H677V596.39H674Z" fill="#E2E2E2"/>
<path d="M1183.82 614.74L1186.15 581.83L1175.18 581.05L1174.83 586.03L1183.27 586.63L1181.29 614.56L1183.82 614.74Z" fill="#E2E2E2"/>
<path d="M158.79 568.4L145.56 578.93L146.71 623.73L173.71 623.04L172.56 578.24L158.79 568.4ZM158.22 604.4L151.22 604.58L151.04 597.58L158.04 597.4L158.22 604.4ZM157.86 590.4L150.86 590.57L150.68 583.57L157.68 583.39L157.86 590.4ZM167.22 604.16L160.22 604.34L160.04 597.34L167.04 597.16L167.22 604.16ZM166.86 590.16L159.86 590.34L159.68 583.34L166.68 583.16L166.86 590.16Z" fill="#FECE9F"/>
<path d="M116.26 597.43L103.57 609.69L104.77 627.28L131.71 625.44L130.51 607.85L116.26 597.43ZM116.83 620.43L112.83 620.71L112.56 616.71L116.56 616.43L116.83 620.43ZM116.42 614.43L112.42 614.7L112.15 610.7L116.15 610.43L116.42 614.43ZM122.82 620L118.82 620.28L118.54 616.28L122.54 616L122.82 620ZM122.41 614L118.41 614.27L118.14 610.27L122.14 610L122.41 614Z" fill="#FCFEAC"/>
<path d="M94.84 614.85L76.27 602.44L60 616.66L65.72 616.31L66.5 631.31L89.88 630L89.1 615.05L94.84 614.85ZM76.2 620.47L69.2 620.83L69.1 618.83L76.1 618.47L76.2 620.47ZM85.66 629L79.66 629.31L78.93 615.31L84.93 614.99L85.66 629Z" fill="#F9FEFB"/>
<path d="M38.31 599.83L12.45 602.22L0.51001 614.37L2.72001 638.27L54.5 633.48L52.29 609.58L38.31 599.83ZM20 629.64L15 630.1L14.54 625.1L19.54 624.64L20 629.64ZM26 629.09L21 629.55L20.54 624.55L25.54 624.09L26 629.09ZM32 628.53L27 629L26.54 624L31.54 623.54L32 628.53ZM44.5 633.41L38.5 633.96L37.1 619L43.1 618.45L44.5 633.41Z" fill="#FCE4FD"/>
<path d="M307.817 530.606L306.517 530.64L306.689 537.138L307.989 537.103L307.817 530.606Z" fill="#F6F8DF"/>
<path d="M368.3 580L367.52 550.76L324 551.92L323.22 522.68L290.22 523.55L291 552.79L248.52 553.92L249.29 583.16L227.29 583.74L228.17 616.74L390.11 612.44L389.23 579.44L368.3 580ZM322.94 560.7L338.54 560.28L338.86 572.28L323.26 572.69L322.94 560.7ZM307.11 528.11C308.791 528.065 310.447 528.52 311.869 529.416C313.292 530.313 314.416 531.611 315.101 533.146C315.785 534.682 315.999 536.386 315.715 538.043C315.431 539.7 314.662 541.236 313.505 542.456C312.348 543.676 310.855 544.525 309.215 544.897C307.575 545.268 305.862 545.145 304.292 544.543C302.723 543.941 301.367 542.886 300.396 541.513C299.426 540.141 298.884 538.511 298.84 536.83C298.809 535.714 298.999 534.603 299.398 533.561C299.798 532.518 300.399 531.565 301.167 530.755C301.935 529.945 302.855 529.294 303.875 528.841C304.895 528.387 305.994 528.138 307.11 528.11ZM316.5 560.87L316.81 572.87L301.21 573.28L300.89 561.28L316.5 560.87ZM278.84 561.87L294.45 561.45L294.77 573.45L279.16 573.87L278.84 561.87ZM257.69 602.45L240.69 602.9L240.39 591.9L257.39 591.45L257.69 602.45ZM256.79 562.45L272.4 562L272.72 574L257.11 574.41L256.79 562.45ZM281.68 601.81L264.68 602.26L264.39 591.26L281.39 590.81L281.68 601.81ZM327.29 611.6L291.29 612.6L290.71 590.6L326.71 589.65L327.29 611.6ZM355.66 599.84L338.66 600.29L338.37 589.29L355.37 588.84L355.66 599.84ZM360.91 571.69L345.3 572.11L344.99 560.11L360.59 559.7L360.91 571.69ZM379.65 599.21L362.65 599.66L362.36 588.66L379.36 588.21L379.65 599.21Z" fill="#F6F8DF"/>
<path d="M439 537.34V546.34H445V601.34H486V546.34H492V537.34H439ZM462.5 583.84H454.5V571.84H462.5V583.84ZM462.5 564.84H454.5V552.84H462.5V564.84ZM476.5 583.84H468.5V571.84H476.5V583.84ZM476.5 564.84H468.5V552.84H476.5V564.84Z" fill="white"/>
<path d="M543 569.39L529 579.29V597.39H557V579.29L543 569.39ZM544 587.39H533V585.39H544V587.39ZM551 593.39H549V583.39H551V593.39Z" fill="white"/>
<path d="M599.91 583.76L582 570.39L565 583.76L570.73 583.7V598.7H594.14V583.7L599.91 583.76ZM578 589.39H575V583.39H578V589.39ZM590 597.39H584V584.39H590V597.39Z" fill="#FCE4FD"/>
<path d="M620 555.39L608 563.17V597.39H632V563.17L620 555.39ZM618 581.39H613V576.39H618V581.39ZM618 572.39H613V567.39H618V572.39ZM627 581.39H622V576.39H627V581.39ZM627 572.39H622V567.39H627V572.39Z" fill="#88AEF7"/>
<path d="M732.25 532.39L715.75 546.39V595.39H748.75V546.39L732.25 532.39ZM730.25 576.39H721.25V570.39H730.25V576.39ZM730.25 561.39H721.25V555.39H730.25V561.39ZM743.25 576.39H734.25V570.39H743.25V576.39ZM743.25 561.39H734.25V555.39H743.25V561.39Z" fill="#F9FEFB"/>
<path d="M778.25 530.89V539.89H784.25V594.89H825.25V539.89H831.25V530.89H778.25ZM801.25 578.39H792.25V569.39H801.25V578.39ZM801.25 555.39H792.25V546.39H801.25V555.39ZM817.25 578.39H808.25V569.39H817.25V578.39ZM817.25 555.39H808.25V546.39H817.25V555.39Z" fill="#FCE4FD"/>
<path d="M919.75 456.89V605.89H966.75V456.89H919.75ZM959.75 586.39H926.75V581.39H959.75V586.39ZM959.75 577.39H926.75V572.39H959.75V577.39ZM959.75 568.39H926.75V563.39H959.75V568.39ZM959.75 559.39H926.75V554.39H959.75V559.39ZM959.75 550.39H926.75V545.39H959.75V550.39ZM959.75 541.39H926.75V536.39H959.75V541.39ZM959.75 532.39H926.75V527.39H959.75V532.39ZM959.75 523.39H926.75V518.39H959.75V523.39ZM959.75 514.39H926.75V509.39H959.75V514.39ZM959.75 505.39H926.75V500.39H959.75V505.39ZM959.75 496.39H926.75V491.39H959.75V496.39ZM959.75 487.39H926.75V482.39H959.75V487.39ZM959.75 478.39H926.75V473.39H959.75V478.39ZM959.75 469.39H926.75V464.39H959.75V469.39Z" fill="#F9FEFB"/>
<path d="M1013.34 457L1009.68 606L1087.68 607.91L1091.34 458.91L1013.34 457ZM1035 572L1019 571.6L1019.39 555.6L1035.39 555.99L1035 572ZM1035.54 550L1019.54 549.61L1019.93 533.61L1035.93 534L1035.54 550ZM1036.08 528L1020.08 527.61L1020.47 511.61L1036.47 512.01L1036.08 528ZM1036.62 506L1020.62 505.6L1021.01 489.6L1037.01 489.99L1036.62 506ZM1037.16 484L1021.16 483.61L1021.55 467.61L1037.55 468L1037.16 484ZM1057.5 572.53L1041.5 572.14L1041.89 556.14L1057.89 556.53L1057.5 572.53ZM1058.04 550.53L1042.04 550.13L1042.43 534.13L1058.43 534.52L1058.04 550.53ZM1058.58 528.53L1042.58 528.14L1042.97 512.14L1058.97 512.54L1058.58 528.53ZM1059.12 506.53L1043.12 506.14L1043.51 490.14L1059.51 490.53L1059.12 506.53ZM1059.66 484.53L1043.66 484.13L1044.05 468.13L1060.05 468.52L1059.66 484.53ZM1080 573.13L1064 572.74L1064.4 556.74L1080.4 557.14L1080 573.13ZM1080.54 551.13L1064.54 550.74L1064.94 534.74L1080.94 535.13L1080.54 551.13ZM1081.08 529.13L1065.08 528.74L1065.48 512.74L1081.48 513.13L1081.08 529.13ZM1081.62 507.13L1065.62 506.74L1066.02 490.74L1082.02 491.14L1081.62 507.13ZM1082.16 485.13L1066.16 484.74L1066.56 468.74L1082.56 469.13L1082.16 485.13Z" fill="#FCFEAB"/>
<path d="M1105.81 514.1L1103.17 612.57L1164.17 614.2L1166.81 515.73L1105.81 514.1ZM1119 576.93L1111.64 576.73L1112.32 551.43L1119.68 551.63L1119 576.93ZM1119.79 547.41L1112.43 547.21L1113.11 521.91L1120.47 522.11L1119.79 547.41ZM1131.88 577.27L1124.52 577.08L1125.2 551.77L1132.55 551.97L1131.88 577.27ZM1132.67 547.75L1125.31 547.56L1125.99 522.26L1133.34 522.45L1132.67 547.75ZM1144.75 577.62L1137.4 577.42L1138.07 552.12L1145.43 552.32L1144.75 577.62ZM1145.54 548.1L1138.19 547.9L1138.86 522.6L1146.22 522.8L1145.54 548.1ZM1157.62 578L1150.26 577.8L1150.94 552.5L1158.3 552.7L1157.62 578ZM1158.41 548.48L1151.05 548.29L1151.73 522.98L1159.09 523.18L1158.41 548.48Z" fill="#F9FEFB"/>
<path d="M1185.81 468L1185.47 479.71L1192.21 479.9L1188.21 622.63L1275.21 625.13L1279.21 482.4L1285.94 482.6L1286.28 470.89L1185.81 468ZM1200.68 481.43L1210.68 481.72L1210.39 491.72L1200.39 491.43L1200.68 481.43ZM1200.23 501.43L1210.23 501.72L1209.94 511.72L1199.94 511.44L1200.23 501.43ZM1199.78 521.43L1209.78 521.72L1209.5 531.72L1199.5 531.43L1199.78 521.43ZM1209.04 551.71L1199.04 551.43L1199.33 541.43L1209.33 541.72L1209.04 551.71ZM1215.67 481.88L1225.67 482.16L1225.38 492.16L1215.38 491.87L1215.67 481.88ZM1215.22 501.88L1225.22 502.17L1224.93 512.17L1214.93 511.89L1215.22 501.88ZM1214.77 521.88L1224.77 522.16L1224.48 532.16L1214.48 531.87L1214.77 521.88ZM1224.03 552.15L1214.03 551.87L1214.31 541.87L1224.31 542.16L1224.03 552.15ZM1230.67 482.32L1240.67 482.6L1240.39 492.6L1230.39 492.31L1230.67 482.32ZM1230.22 502.32L1240.22 502.61L1239.94 512.61L1229.94 512.32L1230.22 502.32ZM1229.77 522.32L1239.77 522.61L1239.49 532.61L1229.49 532.32L1229.77 522.32ZM1239.02 552.6L1229.02 552.31L1229.31 542.31L1239.31 542.6L1239.02 552.6ZM1245.66 482.76L1255.66 483.05L1255.37 493.05L1245.37 492.76L1245.66 482.76ZM1245.21 502.76L1255.21 503.05L1254.92 513.05L1244.92 512.76L1245.21 502.76ZM1244.76 522.76L1254.76 523.05L1254.47 533.05L1244.47 532.76L1244.76 522.76ZM1254 553L1244 552.71L1244.29 542.71L1254.29 543L1254 553ZM1260.63 483.16L1270.63 483.45L1270.34 493.45L1260.34 493.17L1260.63 483.16ZM1260.18 503.16L1270.18 503.45L1269.89 513.45L1259.89 513.16L1260.18 503.16ZM1259.73 523.16L1269.73 523.45L1269.44 533.45L1259.44 533.17L1259.73 523.16ZM1268.99 553.44L1258.99 553.15L1259.27 543.15L1269.27 543.43L1268.99 553.44Z" fill="#FCCB9D"/>
<path d="M1294.73 632.59L1374.73 635.11L1380.8 439.2L1300.8 436.68L1294.73 632.59ZM1355.42 449.91L1370.42 450.38L1369.82 469.38L1354.82 468.91L1355.42 449.91ZM1354.5 478.91L1369.5 479.39L1368.9 498.39L1353.9 497.91L1354.5 478.91ZM1353.59 507.91L1368.59 508.38L1368 527.38L1353 526.91L1353.59 507.91ZM1352.68 536.91L1367.68 537.38L1367.08 556.38L1352.08 555.91L1352.68 536.91ZM1351.77 565.91L1366.77 566.38L1366.17 585.38L1351.17 584.91L1351.77 565.91ZM1332.93 449.2L1347.93 449.67L1347.33 468.67L1332.33 468.2L1332.93 449.2ZM1332.01 478.2L1347.01 478.67L1346.41 497.67L1331.41 497.2L1332.01 478.2ZM1331.1 507.2L1346.1 507.67L1345.5 526.67L1330.5 526.2L1331.1 507.2ZM1330.19 536.2L1345.19 536.67L1344.6 555.67L1329.6 555.2L1330.19 536.2ZM1329.28 565.2L1344.28 565.68L1343.68 584.68L1328.68 584.2L1329.28 565.2ZM1310.44 448.55L1325.44 449.03L1324.84 468.03L1309.84 467.55L1310.44 448.55ZM1309.53 477.55L1324.53 478.02L1323.93 497.02L1308.93 496.55L1309.53 477.55ZM1308.61 506.55L1323.61 507.03L1323.01 526.03L1308.01 525.56L1308.61 506.55ZM1307.7 535.55L1322.7 536.02L1322.11 555.02L1307.11 554.55L1307.7 535.55ZM1306.79 564.55L1321.79 565.02L1321.19 584.02L1306.19 583.55L1306.79 564.55Z" fill="#FCE4FD"/>
<path d="M0 768H1412V634.89C851.5 579.39 552.5 582.39 0 636.89V768Z" fill="#ADD868"/>
</svg>
