<svg width="31" height="40" viewBox="0 0 31 40" fill="none" xmlns="http://www.w3.org/2000/svg">
<path d="M29.5593 29.5691L23.317 22.4998H25.7103C26.4144 22.4998 27.0371 22.1092 27.334 21.4795C27.6309 20.8514 27.5333 20.1311 27.0777 19.6007L20.973 12.5002H23.2303C23.9413 12.5002 24.5821 12.0822 24.8602 11.4369C25.1353 10.8018 25.0056 10.0627 24.5289 9.55573L15.9129 0.377917C15.4417 -0.125972 14.5627 -0.125972 14.0907 0.377917L5.47387 9.55573C4.99724 10.0627 4.86831 10.8018 5.14257 11.4369C5.42074 12.0822 6.06223 12.5002 6.77327 12.5002H9.03063L2.92507 19.6023C2.4711 20.1319 2.37343 20.8514 2.66956 21.4803C2.96648 22.1092 3.58845 22.4998 4.29323 22.4998H6.68654L0.444247 29.5691C-0.02457 30.0996 -0.130835 30.8261 0.166082 31.4644C0.459093 32.0932 1.10372 32.4995 1.80772 32.4995H12.5014V34.4096L10.1347 38.1907C9.71901 39.0219 10.3238 40 11.2528 40H18.7508C19.6798 40 20.2846 39.0219 19.8689 38.1907L17.5021 34.4096V32.4995H28.1959C28.8999 32.4995 29.5445 32.0932 29.8375 31.4644C30.1344 30.8261 30.0282 30.0996 29.5593 29.5691Z" fill="white"/>
</svg>
