<svg width="35" height="40" viewBox="0 0 35 40" fill="none" xmlns="http://www.w3.org/2000/svg">
<path d="M35 7.5V27.5C35 31.548 30.1856 35 24.842 35L29.7623 38.8845C30.227 39.2513 29.9658 40 29.375 40H5.625C5.03297 40 4.77406 39.2505 5.23773 38.8845L10.158 35C4.82969 35 0 31.5589 0 27.5V7.5C0 3.35789 5 0 10 0H25C30.0781 0 35 3.35789 35 7.5ZM31.25 18.125V9.375C31.25 8.33945 30.4105 7.5 29.375 7.5H5.625C4.58945 7.5 3.75 8.33945 3.75 9.375V18.125C3.75 19.1605 4.58945 20 5.625 20H29.375C30.4105 20 31.25 19.1605 31.25 18.125ZM17.5 23.125C15.0837 23.125 13.125 25.0837 13.125 27.5C13.125 29.9163 15.0837 31.875 17.5 31.875C19.9163 31.875 21.875 29.9163 21.875 27.5C21.875 25.0837 19.9163 23.125 17.5 23.125Z" fill="white"/>
</svg>
