<svg width="24" height="24" viewBox="0 0 24 24" fill="none" xmlns="http://www.w3.org/2000/svg">
<path d="M21.44 3.34999C20.6782 2.74527 19.7792 2.33755 18.8224 2.16289C17.8655 1.98823 16.8804 2.052 15.9541 2.34858C15.0278 2.64516 14.1888 3.1654 13.5114 3.8633C12.8339 4.5612 12.3389 5.41527 12.07 6.34999C12.07 6.36856 12.0626 6.38636 12.0495 6.39949C12.0364 6.41262 12.0186 6.41999 12 6.41999C11.9814 6.41999 11.9636 6.41262 11.9505 6.39949C11.9374 6.38636 11.93 6.36856 11.93 6.34999C11.6678 5.49232 11.2144 4.7053 10.604 4.04818C9.99362 3.39105 9.24214 2.88093 8.40611 2.55622C7.57008 2.23151 6.67129 2.10067 5.77739 2.17353C4.88348 2.2464 4.01775 2.52107 3.24534 2.97689C2.47294 3.43271 1.81399 4.0578 1.31809 4.8051C0.822192 5.5524 0.502261 6.40245 0.382378 7.29128C0.262495 8.1801 0.345784 9.08454 0.625975 9.93652C0.906166 10.7885 1.37596 11.5658 2 12.21L11.52 21.73C11.5787 21.7899 11.6487 21.8374 11.7259 21.8699C11.8032 21.9024 11.8862 21.9191 11.97 21.9191C12.0538 21.9191 12.1368 21.9024 12.2141 21.8699C12.2913 21.8374 12.3613 21.7899 12.42 21.73L22 12.21C22.5903 11.6143 23.0478 10.9003 23.3423 10.1151C23.6368 9.32993 23.7617 8.49125 23.7088 7.65429C23.6559 6.81733 23.4264 6.00105 23.0354 5.25917C22.6443 4.5173 22.1006 3.86663 21.44 3.34999Z" fill="#F4718E"/>
</svg>
