<svg width="24" height="24" viewBox="0 0 24 24" fill="none" xmlns="http://www.w3.org/2000/svg">
<g clip-path="url(#clip0)">
<path d="M12 0C9.62663 0 7.30655 0.703788 5.33316 2.02236C3.35977 3.34094 1.8217 5.21509 0.913451 7.4078C0.00519943 9.60051 -0.232441 12.0133 0.230582 14.3411C0.693605 16.6689 1.83649 18.8071 3.51472 20.4853C5.19295 22.1635 7.33115 23.3064 9.65892 23.7694C11.9867 24.2324 14.3995 23.9948 16.5922 23.0866C18.7849 22.1783 20.6591 20.6402 21.9776 18.6668C23.2962 16.6935 24 14.3734 24 12C24 8.8174 22.7357 5.76515 20.4853 3.51472C18.2348 1.26428 15.1826 0 12 0V0ZM12 22.14C9.9945 22.14 8.03404 21.5453 6.36652 20.4311C4.69901 19.3169 3.39934 17.7333 2.63187 15.8804C1.86439 14.0276 1.66359 11.9888 2.05484 10.0218C2.4461 8.05482 3.41184 6.24804 4.82994 4.82994C6.24805 3.41183 8.05482 2.44609 10.0218 2.05484C11.9888 1.66358 14.0276 1.86439 15.8804 2.63186C17.7333 3.39933 19.3169 4.699 20.4311 6.36652C21.5453 8.03403 22.14 9.9945 22.14 12C22.14 14.6893 21.0717 17.2684 19.1701 19.1701C17.2684 21.0717 14.6893 22.14 12 22.14Z" fill="white"/>
<path d="M12 8.10008C12.8339 8.10008 13.51 7.42403 13.51 6.59008C13.51 5.75613 12.8339 5.08008 12 5.08008C11.166 5.08008 10.49 5.75613 10.49 6.59008C10.49 7.42403 11.166 8.10008 12 8.10008Z" fill="white"/>
<path d="M13.31 10.4799C13.31 9.7509 12.7212 9.15991 11.995 9.15991C11.2687 9.15991 10.68 9.7509 10.68 10.4799V17.7199C10.68 18.4489 11.2687 19.0399 11.995 19.0399C12.7212 19.0399 13.31 18.4489 13.31 17.7199V10.4799Z" fill="white"/>
</g>
<defs>
<clipPath id="clip0">
<rect width="24" height="24" fill="white"/>
</clipPath>
</defs>
</svg>
