<svg width="24" height="24" viewBox="0 0 24 24" fill="none" xmlns="http://www.w3.org/2000/svg">
<g clip-path="url(#clip0)">
<path d="M22.49 1.67008C22.1128 0.97898 21.4934 0.451776 20.7509 0.189912C20.0084 -0.0719532 19.1952 -0.0499787 18.468 0.251607C17.7407 0.553193 17.1506 1.11308 16.8113 1.82355C16.472 2.53402 16.4074 3.34487 16.63 4.10008L6.74001 9.47008C6.35053 9.00918 5.83832 8.66821 5.26283 8.48673C4.68734 8.30526 4.07218 8.29073 3.48876 8.44484C2.90535 8.59895 2.37761 8.91538 1.96682 9.35738C1.55602 9.79938 1.27901 10.3488 1.16796 10.942C1.0569 11.5351 1.11635 12.1475 1.3394 12.7082C1.56245 13.2689 1.93995 13.7548 2.42809 14.1096C2.91622 14.4643 3.49496 14.6733 4.09712 14.7124C4.69928 14.7514 5.30016 14.6188 5.83001 14.3301C6.02607 14.2369 6.21347 14.1264 6.39001 14.0001L14.94 19.8701C14.6876 20.6233 14.7234 21.4434 15.0406 22.1717C15.3578 22.9001 15.9338 23.4849 16.6572 23.8132C17.3806 24.1414 18.2001 24.1898 18.9571 23.9489C19.7141 23.708 20.3548 23.195 20.7555 22.509C21.1561 21.823 21.2882 21.0129 21.1261 20.2352C20.9641 19.4575 20.5194 18.7675 19.8781 18.2987C19.2368 17.8298 18.4444 17.6155 17.6542 17.697C16.864 17.7785 16.1321 18.1502 15.6 18.7401L7.18001 12.9101C7.52656 12.1971 7.59432 11.3804 7.37001 10.6201L17.26 5.25008C17.7733 5.84102 18.4859 6.22263 19.2622 6.3223C20.0385 6.42197 20.8244 6.23274 21.4703 5.79063C22.1162 5.34851 22.577 4.68437 22.765 3.92458C22.953 3.1648 22.8552 2.3624 22.49 1.67008Z" fill="white"/>
</g>
<defs>
<clipPath id="clip0">
<rect width="24" height="24" fill="white"/>
</clipPath>
</defs>
</svg>
