<svg width="23" height="24" viewBox="0 0 23 24" fill="none" xmlns="http://www.w3.org/2000/svg">
<g clip-path="url(#clip0)">
<path d="M17.49 3.08004C17.4953 2.61231 17.3153 2.16147 16.9893 1.82606C16.6633 1.49065 16.2177 1.29794 15.75 1.29004H1.75C1.51631 1.29131 1.28521 1.3391 1.07019 1.43063C0.855172 1.52216 0.660533 1.6556 0.497631 1.82316C0.33473 1.99071 0.206828 2.18903 0.121389 2.40654C0.0359491 2.62406 -0.00531715 2.85641 -2.54027e-06 3.09004V21.48C-0.00535469 21.9478 0.17466 22.3986 0.500702 22.734C0.826744 23.0694 1.2723 23.2621 1.74 23.27H15.74C15.9711 23.2661 16.1992 23.2167 16.4113 23.1247C16.6233 23.0326 16.8151 22.8996 16.9758 22.7334C17.1364 22.5672 17.2628 22.3709 17.3476 22.1559C17.4324 21.9408 17.474 21.7112 17.47 21.48L17.49 3.08004ZM15.57 21.64H1.94C1.82239 21.6374 1.71049 21.5889 1.62824 21.5048C1.546 21.4206 1.49997 21.3077 1.5 21.19V3.38004C1.49867 3.32094 1.509 3.26216 1.53039 3.20705C1.55179 3.15195 1.58383 3.1016 1.6247 3.05888C1.66556 3.01616 1.71443 2.98191 1.76853 2.95809C1.82263 2.93427 1.8809 2.92134 1.94 2.92004H15.56C15.6776 2.92265 15.7895 2.97122 15.8717 3.05533C15.954 3.13943 16 3.2524 16 3.37004V21.18C16.0027 21.2977 15.9592 21.4118 15.8789 21.4978C15.7985 21.5838 15.6876 21.6348 15.57 21.64Z" fill="#FFB74C"/>
<path d="M21.9605 0.374503C22.2014 0.614987 22.3375 0.940949 22.3392 1.28135C22.3408 1.62175 22.2078 1.94899 21.9692 2.19176L15.8722 8.29942L14.0463 6.47667L20.1433 0.369018C20.385 0.126885 20.713 -0.00931135 21.0551 -0.00960989C21.3972 -0.00990847 21.7255 0.125715 21.9676 0.367425L21.9605 0.374503Z" fill="#FFB74C"/>
<path d="M13.81 8.9299L15.69 8.4699L13.87 6.6499L13.41 8.5399C13.3952 8.59487 13.3953 8.65279 13.4104 8.7077C13.4254 8.7626 13.4548 8.8125 13.4956 8.85224C13.5364 8.89198 13.587 8.92013 13.6422 8.93378C13.6975 8.94743 13.7554 8.94609 13.81 8.9299Z" fill="#FFB74C"/>
<path d="M4.52 6.21505C4.52 5.84778 4.22227 5.55005 3.855 5.55005C3.48773 5.55005 3.19 5.84778 3.19 6.21505C3.19 6.58232 3.48773 6.88005 3.855 6.88005C4.22227 6.88005 4.52 6.58232 4.52 6.21505Z" fill="#FFB74C"/>
<path d="M4.52 9.10494C4.52 8.73767 4.22227 8.43994 3.855 8.43994C3.48773 8.43994 3.19 8.73767 3.19 9.10494C3.19 9.47221 3.48773 9.76994 3.855 9.76994C4.22227 9.76994 4.52 9.47221 4.52 9.10494Z" fill="#FFB74C"/>
<path d="M4.52 11.9851C4.52 11.6178 4.22227 11.3201 3.855 11.3201C3.48773 11.3201 3.19 11.6178 3.19 11.9851C3.19 12.3523 3.48773 12.6501 3.855 12.6501C4.22227 12.6501 4.52 12.3523 4.52 11.9851Z" fill="#FFB74C"/>
<path d="M10.62 5.55005H6.55998C6.18995 5.55005 5.88998 5.84778 5.88998 6.21505C5.88998 6.58232 6.18995 6.88005 6.55998 6.88005H10.62C10.99 6.88005 11.29 6.58232 11.29 6.21505C11.29 5.84778 10.99 5.55005 10.62 5.55005Z" fill="#FFB74C"/>
<path d="M10.62 8.42993H6.55998C6.18995 8.42993 5.88998 8.72766 5.88998 9.09493C5.88998 9.4622 6.18995 9.75993 6.55998 9.75993H10.62C10.99 9.75993 11.29 9.4622 11.29 9.09493C11.29 8.72766 10.99 8.42993 10.62 8.42993Z" fill="#FFB74C"/>
<path d="M10.63 11.3201H6.56999C6.19996 11.3201 5.89999 11.6178 5.89999 11.9851C5.89999 12.3523 6.19996 12.6501 6.56999 12.6501H10.63C11 12.6501 11.3 12.3523 11.3 11.9851C11.3 11.6178 11 11.3201 10.63 11.3201Z" fill="#FFB74C"/>
</g>
<defs>
<clipPath id="clip0">
<rect width="22.34" height="23.27" fill="white"/>
</clipPath>
</defs>
</svg>
