<svg width="24" height="24" viewBox="0 0 24 24" fill="none" xmlns="http://www.w3.org/2000/svg">
<g clip-path="url(#clip0)">
<path d="M22.18 9.79006H21.49C21.1651 9.76417 20.8537 9.64856 20.5906 9.4561C20.3275 9.26364 20.1231 9.0019 20 8.70006C19.8767 8.39898 19.8413 8.06911 19.8979 7.74873C19.9546 7.42835 20.1009 7.1306 20.32 6.89006L20.78 6.38006C21.1119 6.01696 21.2909 5.53981 21.2797 5.04802C21.2685 4.55622 21.068 4.0877 20.72 3.74006L20.29 3.31006C19.9424 2.96201 19.4738 2.76151 18.982 2.75034C18.4902 2.73916 18.0131 2.91816 17.65 3.25006L17.15 3.71006C16.9023 3.9278 16.5978 4.07066 16.2721 4.12201C15.9463 4.17335 15.6126 4.13106 15.31 4.00006C15.0107 3.87255 14.7534 3.66324 14.5677 3.39615C14.382 3.12906 14.2753 2.81501 14.26 2.49006V1.80006C14.2341 1.30313 14.0142 0.836199 13.6477 0.499618C13.2812 0.163036 12.7973 -0.0163339 12.3 5.53897e-05H11.7C11.207 -0.000377239 10.7329 0.189836 10.3769 0.530907C10.021 0.871978 9.81064 1.33749 9.79 1.83006V2.51006C9.77757 2.84267 9.66946 3.16465 9.47863 3.43736C9.28779 3.71007 9.02234 3.92194 8.7141 4.04756C8.40586 4.17318 8.06793 4.20721 7.74084 4.14557C7.41374 4.08393 7.11137 3.92924 6.87 3.70006L6.37 3.24006C6.0069 2.90816 5.52975 2.72916 5.03796 2.74034C4.54616 2.75151 4.07764 2.95201 3.73 3.30006L3.3 3.73006C2.95195 4.0777 2.75145 4.54622 2.74028 5.03802C2.7291 5.52981 2.9081 6.00696 3.24 6.37006L3.7 6.87006C3.91554 7.11482 4.05796 7.41523 4.11101 7.73703C4.16405 8.05883 4.12559 8.38906 4 8.69005C3.87497 8.98881 3.66949 9.24702 3.40643 9.43593C3.14337 9.62484 2.83304 9.73704 2.51 9.76006H1.82C1.32396 9.78338 0.856515 9.99898 0.516758 10.3611C0.177001 10.7233 -0.00835244 11.2035 -4.43071e-06 11.7001V12.3001C-0.000550199 12.7914 0.188281 13.2641 0.527235 13.6198C0.86619 13.9755 1.32919 14.1869 1.82 14.2101H2.51C2.83639 14.2357 3.14905 14.3523 3.41244 14.5468C3.67583 14.7412 3.8794 15.0057 4 15.3101C4.12296 15.6129 4.15816 15.9442 4.10157 16.266C4.04497 16.5879 3.89887 16.8874 3.68 17.1301L3.22 17.6301C2.8881 17.9931 2.7091 18.4703 2.72028 18.9621C2.73145 19.4539 2.93195 19.9224 3.28 20.2701L3.71 20.7001C4.05764 21.0481 4.52616 21.2486 5.01796 21.2598C5.50975 21.271 5.9869 21.0919 6.35 20.7601L6.85 20.3001C7.09665 20.0807 7.40062 19.936 7.72643 19.8828C8.05223 19.8297 8.38643 19.8704 8.68999 20.0001C8.9891 20.129 9.24656 20.3384 9.4337 20.605C9.62085 20.8716 9.73034 21.1849 9.75 21.5101V22.1901C9.77588 22.6861 9.99397 23.1525 10.358 23.4904C10.7221 23.8283 11.2034 24.0111 11.7 24.0001H12.3C12.7921 24.0031 13.2661 23.8151 13.6224 23.4756C13.9786 23.1361 14.1893 22.6717 14.21 22.1801V21.4901C14.2333 21.163 14.3491 20.8493 14.5438 20.5855C14.7386 20.3217 15.0043 20.1186 15.31 20.0001C15.6128 19.8771 15.9441 19.8419 16.266 19.8985C16.5879 19.9551 16.8873 20.1012 17.13 20.3201L17.63 20.7801C17.9931 21.1119 18.4702 21.291 18.962 21.2798C19.4538 21.2686 19.9224 21.0681 20.27 20.7201L20.7 20.2901C21.048 19.9424 21.2485 19.4739 21.2597 18.9821C21.2709 18.4903 21.0919 18.0131 20.76 17.6501L20.3 17.1401C20.0804 16.8956 19.9354 16.5933 19.8822 16.2689C19.8291 15.9446 19.8699 15.6119 20 15.3101C20.129 15.0109 20.3384 14.7535 20.605 14.5663C20.8716 14.3792 21.1849 14.2697 21.51 14.2501H22.2C22.6942 14.2217 23.1582 14.0025 23.494 13.6387C23.8298 13.2749 24.0112 12.795 24 12.3001V11.7001C24.0005 11.2087 23.8117 10.736 23.4728 10.3803C23.1338 10.0246 22.6708 9.81321 22.18 9.79006ZM12 16.0001C11.2089 16.0001 10.4355 15.7655 9.77771 15.3259C9.11992 14.8864 8.60723 14.2617 8.30448 13.5308C8.00173 12.7999 7.92251 11.9956 8.07685 11.2197C8.23119 10.4438 8.61216 9.73104 9.17157 9.17163C9.73098 8.61222 10.4437 8.23125 11.2196 8.07691C11.9956 7.92257 12.7998 8.00179 13.5307 8.30454C14.2616 8.60729 14.8863 9.11998 15.3259 9.77777C15.7654 10.4356 16 11.2089 16 12.0001C16 13.0609 15.5786 14.0783 14.8284 14.8285C14.0783 15.5786 13.0609 16.0001 12 16.0001Z" fill="#C4C4C4"/>
</g>
<defs>
<clipPath id="clip0">
<rect width="24" height="24" fill="white"/>
</clipPath>
</defs>
</svg>
