<svg width="11" height="16" viewBox="0 0 11 16" fill="none" xmlns="http://www.w3.org/2000/svg">
<path d="M6.49919 2.99947C7.32731 2.99947 7.99919 2.32771 7.99919 1.49973C7.99919 0.671756 7.32731 0 6.49919 0C5.67107 0 4.9992 0.671756 4.9992 1.49973C4.9992 2.32771 5.67107 2.99947 6.49919 2.99947ZM9.4523 7.65802L8.72418 7.28933L8.42106 6.37075C7.96169 4.97724 6.68044 4.00242 5.22732 3.99929C4.10233 3.99617 3.48045 4.31486 2.31171 4.78665C1.63671 5.05848 1.08359 5.57401 0.758591 6.23015L0.549217 6.65507C0.305468 7.14873 0.502342 7.74863 0.992965 7.99546C1.48046 8.24229 2.07421 8.04233 2.32108 7.54866L2.53046 7.12374C2.63983 6.90503 2.82108 6.73318 3.04608 6.64257L3.88358 6.30513L3.40858 8.20167C3.24608 8.85156 3.42108 9.54206 3.8742 10.0388L5.74607 12.0822C5.97107 12.3291 6.13044 12.6259 6.21169 12.9477L6.78357 15.2379C6.91794 15.7722 7.46169 16.1003 7.99606 15.9659C8.53043 15.8316 8.85856 15.2879 8.72418 14.7536L8.03044 11.9729C7.94919 11.6511 7.78981 11.3511 7.56481 11.1074L6.14294 9.55456L6.68044 7.40806L6.85232 7.9236C7.01794 8.42663 7.37419 8.84218 7.84294 9.07964L8.57106 9.44833C9.05856 9.69516 9.6523 9.49519 9.89918 9.00153C10.1398 8.51099 9.94293 7.90485 9.4523 7.65802ZM2.29921 12.0541C2.19921 12.3072 2.04921 12.5353 1.85546 12.7259L0.292968 14.2912C-0.0976558 14.6818 -0.0976558 15.316 0.292968 15.7066C0.683591 16.0972 1.31484 16.0972 1.70546 15.7066L3.5617 13.8507C3.75233 13.6601 3.90233 13.432 4.00545 13.1789L4.42733 12.1229C2.69921 10.2388 3.21796 10.8168 2.94608 10.445L2.29921 12.0541Z" fill="#FFB74C"/>
</svg>
